<?xml version="1.0" encoding="UTF-8"?>
<!DOCTYPE svg PUBLIC "-//W3C//DTD SVG 1.1//EN" "http://www.w3.org/Graphics/SVG/1.1/DTD/svg11.dtd">
<!-- Creator: CorelDRAW -->
<svg xmlns="http://www.w3.org/2000/svg" xml:space="preserve" width="2048px" height="2048px" style="shape-rendering:geometricPrecision; text-rendering:geometricPrecision; image-rendering:optimizeQuality; fill-rule:evenodd; clip-rule:evenodd"
viewBox="0 0 2048 2048"
 xmlns:xlink="http://www.w3.org/1999/xlink">
 <defs>
  <style type="text/css">
   <![CDATA[
    .fil2 {fill:none}
    .fil0 {fill:#424242}
    .fil1 {fill:#424242;fill-rule:nonzero}
   ]]>
  </style>
 </defs>
 <g id="Layer_x0020_1">
  <metadata id="CorelCorpID_0Corel-Layer"/>
  <g id="_477074056">
   <path id="_477075016" class="fil0" d="M1215.8 592.232l0.0283465 -0.166536 0.0578741 -0.349607 0.0507874 -0.372048 0.0448819 -0.393307 0.0377953 -0.434646 0.0248032 -0.380315 0.0165354 -0.466536 -0.0885827 -1.38189c-1.07717,-16.9583 -8.72363,-32.6303 -21.4772,-43.8662 -12.3461,-10.878 -28.5059,-15.6992 -44.778,-15.8516l-0.0129921 0 -1.40788 0.0897638c-16.9595,1.0748 -32.6339,8.72481 -43.8697,21.4784 -10.5402,11.9634 -16.1894,27.391 -15.8788,43.3323l0.0283465 1.40197 -22.9429 146.433c-0.408662,2.60669 -0.843308,5.85473 -0.37441,8.60906l0.351969 1.17874c3.71575,12.4488 10.8106,22.8201 21.1618,30.7134 9.44528,7.20355 21.8221,11.3669 33.3225,14.0244 10.1138,0.94252 21.1477,1.08662 31.3004,1.54725 21.0213,0.95315 42.0473,1.84725 63.0721,2.72481 15.4642,0.646063 30.9296,1.27913 46.3961,1.89567l17.4154 0.694489 -2.17914 17.2914c-0.994489,7.89331 -1.53543,15.8492 -1.53543,23.8063l0 777.002c0,16.6453 6.53977,32.4201 18.3071,44.1886 11.7662,11.7673 27.5421,18.3059 44.1863,18.3059 16.6453,0 32.4201,-6.53859 44.1886,-18.3059 11.7673,-11.7685 18.3059,-27.5433 18.3059,-44.1886l0 -382.325 14.3988 -1.44803c11.1224,-1.1185 22.2154,-1.1185 33.3378,0l14.3988 1.44803 0 382.325c0,16.6453 6.53977,32.4201 18.3071,44.1886 11.7662,11.7673 27.5421,18.3059 44.1863,18.3059 16.6453,0 32.4201,-6.53859 44.1886,-18.3059 11.7673,-11.7685 18.3059,-27.5433 18.3059,-44.1886l0 -674.091 27.5339 28.6429c31.5567,32.8276 62.7922,65.9705 94.6961,98.4639 17.5606,17.8854 40.4162,23.4945 63.8563,14.778 7.9441,-2.95394 15.3118,-7.52481 21.5882,-13.213 6.29646,-5.70591 11.6835,-12.5787 15.4181,-20.2264 10.728,-21.9721 9.83387,-46.1327 -7.84134,-64.2225l-285.121 -291.815c-7.38426,-7.55788 -15.9307,-11.3717 -25.3004,-15.7476 -19.0488,-8.89607 -39.8126,-14.0658 -60.8859,-14.0658 -38.4142,0 -76.9075,1.10197 -115.311,2.07874 -30.9142,0.785434 -61.8308,1.57205 -92.7532,1.87205l-18.7004 0.18189 11.8087 -80.4827 0.135827 -0.713386z"/>
   <path id="_477074392" class="fil1" d="M1338.89 402.715c23.478,-23.478 55.9134,-38.002 91.7351,-38.002 35.8229,0 68.2583,14.524 91.7351,38.002 23.478,23.4768 38.002,55.9122 38.002,91.7351 0,35.8217 -14.524,68.2571 -38.002,91.7351 -23.4768,23.478 -55.9122,38.002 -91.7351,38.002 -35.8217,0 -68.2571,-14.524 -91.7351,-38.002 -23.478,-23.478 -38.002,-55.9134 -38.002,-91.7351 0,-35.8229 14.524,-68.2583 38.002,-91.7351z"/>
   <path id="_477075040" class="fil0" d="M897.388 528.57l-0.0129921 0c-16.2721,0.152362 -32.4319,4.97363 -44.778,15.8516 -12.7536,11.2358 -20.4,26.9079 -21.4772,43.8662l-0.0885827 1.38189 0.0011811 0.0744095 0.0165354 0.403937 0.0259843 0.407481 0.0354331 0.39567 0.0448819 0.393307 0.0649607 0.464174 0.0720473 0.424016 0.135827 0.713386 11.8087 80.4827 -18.7004 -0.18189c-30.9225,-0.3 -61.839,-1.08662 -92.7532,-1.87205 -38.4036,-0.976772 -76.8969,-2.07874 -115.311,-2.07874 -21.0732,0 -41.837,5.16969 -60.8859,14.0658 -8.92796,4.17048 -18.854,11.7413 -26.6162,17.7803 -13.6677,10.6311 -26.837,22.1398 -39.6815,33.7477 -33.4465,30.2256 -65.6894,62.263 -97.1847,94.5095 -30.0071,30.7229 -59.5311,62.0056 -88.3902,93.8103 -19.3701,21.3484 -39.665,43.6122 -57.365,66.3591 -15.3402,19.7126 -20.1567,42.7772 -9.02481,65.5784 3.73465,7.64764 9.12166,14.5205 15.4181,20.2264 6.27638,5.68819 13.6441,10.2591 21.5882,13.213 22.324,8.30079 44.4555,3.67559 61.8449,-12.8008 33.7134,-31.9441 64.5308,-66.9674 96.7076,-100.441l27.5339 -28.6441 0 674.092c0,34.513 27.9815,62.4945 62.4945,62.4945 34.513,0 62.4934,-27.9827 62.4934,-62.4945l0 -382.327 14.4 -1.44685c5.53937,-0.5563 11.0988,-0.858662 16.6677,-0.858662 5.5689,0 11.1284,0.302362 16.6677,0.858662l14.4 1.44685 0 382.327c0,34.513 27.9815,62.4945 62.4945,62.4945 34.4764,0 62.5642,-27.9414 62.4934,-62.4615l-1.69488 -820.56 16.6961 0.692127c36.854,1.52599 174.152,6.65434 192.349,-39.0981 2.59252,-6.52087 2.65512,-13.7055 1.5815,-20.5547l-22.9429 -146.433 0.0283465 -1.40197c0.31063,-15.9414 -5.33859,-31.3689 -15.8788,-43.3323 -11.2358,-12.7536 -26.9103,-20.4036 -43.8697,-21.4784l-1.40788 -0.0897638z"/>
   <path id="_477073624" class="fil1" d="M616.472 364.713c35.8217,0 68.2571,14.524 91.7351,38.002 23.478,23.4768 38.002,55.9122 38.002,91.7351 0,35.8217 -14.524,68.2571 -38.002,91.7351 -23.478,23.478 -55.9134,38.002 -91.7351,38.002 -35.8229,0 -68.2583,-14.524 -91.7351,-38.002 -23.478,-23.478 -38.002,-55.9134 -38.002,-91.7351 0,-35.8229 14.524,-68.2583 38.002,-91.7351 23.4768,-23.478 55.9122,-38.002 91.7351,-38.002z"/>
   <polygon id="_477073984" class="fil1" points="767.548,408.004 895.34,423.196 895.34,488.811 767.548,504.004 "/>
   <polygon id="_477074080" class="fil1" points="1279.55,408.004 1151.76,423.196 1151.76,488.811 1279.55,504.004 "/>
   <path id="_477074296" class="fil1" d="M863.288 439.998c-8.83583,0 -16.0004,7.16457 -16.0004,16.0004 0,8.83583 7.16457,16.0004 16.0004,16.0004l346.836 0c8.83583,0 16.0004,-7.16457 16.0004,-16.0004 0,-8.83583 -7.16457,-16.0004 -16.0004,-16.0004l-346.836 0z"/>
  </g>
 </g>
 <rect class="fil2" width="2048" height="2048"/>
</svg>
