<?xml version="1.0" encoding="utf-8"?>
<!-- Generator: Adobe Illustrator 24.0.0, SVG Export Plug-In . SVG Version: 6.00 Build 0)  -->
<svg version="1.1" xmlns="http://www.w3.org/2000/svg" xmlns:xlink="http://www.w3.org/1999/xlink" x="0px" y="0px"
	 viewBox="0 0 64 64" enable-background="new 0 0 64 64" xml:space="preserve">
<g id="Captions">
</g>
<g id="Icons">
	<g>
		<g>
			<g>
				<rect x="9" y="11" fill="#C80A50" width="42" height="42"/>
			</g>
			<g>
				<g>
					<path fill="#A00028" d="M10,22h7v15c0,0.552,0.448,1,1,1h8c0.552,0,1-0.448,1-1s-0.448-1-1-1h-7V21c0-0.552-0.448-1-1-1H9v33h1
						V22z"/>
				</g>
				<g>
					<path fill="#A00028" d="M27,53v-8c0-0.552-0.448-1-1-1h-8c-0.552,0-1,0.448-1,1s0.448,1,1,1h7v7H27z"/>
				</g>
				<g>
					<path fill="#A00028" d="M25,13v8c0,0.552,0.448,1,1,1h16c0.553,0,1-0.448,1-1s-0.447-1-1-1H27v-7h23v15H26
						c-0.552,0-1,0.448-1,1s0.448,1,1,1h24v14h-7v-7c0-0.552-0.447-1-1-1s-1,0.448-1,1v8c0,0.552,0.447,1,1,1h9V11H9v2H25z"/>
				</g>
				<g>
					<path fill="#A00028" d="M34,36c-0.553,0-1,0.448-1,1v16h2V37C35,36.448,34.553,36,34,36z"/>
				</g>
			</g>
			<g>
				<path fill="#A00028" d="M51,48H40c-0.552,0-1-0.449-1-1V35c0-1.654-1.346-3-3-3H24c-0.551,0-1-0.449-1-1V19c0-1.654-1.346-3-3-3
					H9v2h11c0.551,0,1,0.449,1,1v12c0,1.654,1.346,3,3,3h12c0.552,0,1,0.449,1,1v12c0,1.654,1.346,3,3,3h11V48z"/>
			</g>
			<g>
				<path fill="#FAB400" d="M51,52H35V36c0-0.552-0.447-1-1-1s-1,0.448-1,1v16h-6v-8c0-0.552-0.448-1-1-1h-8c-0.552,0-1,0.448-1,1
					s0.448,1,1,1h7v7H10V21h7v15c0,0.552,0.448,1,1,1h8c0.552,0,1-0.448,1-1s-0.448-1-1-1h-7V20c0-0.552-0.448-1-1-1H9
					c-0.552,0-1,0.448-1,1v33c0,0.552,0.448,1,1,1h42c0.553,0,1-0.448,1-1S51.553,52,51,52z"/>
				<path fill="#FAB400" d="M51,10H9c-0.552,0-1,0.448-1,1s0.448,1,1,1h16v8c0,0.552,0.448,1,1,1h16c0.553,0,1-0.448,1-1
					s-0.447-1-1-1H27v-7h23v15H26c-0.552,0-1,0.448-1,1s0.448,1,1,1h24v14h-7v-7c0-0.552-0.447-1-1-1s-1,0.448-1,1v8
					c0,0.552,0.447,1,1,1h9c0.553,0,1-0.448,1-1V11C52,10.448,51.553,10,51,10z"/>
			</g>
		</g>
		<path fill="#00A0C8" d="M59.707,47.293l-3-3c-0.286-0.286-0.716-0.371-1.09-0.217C55.243,44.231,55,44.596,55,45v2H40
			c-0.552,0-1-0.449-1-1V34c0-1.654-1.346-3-3-3H24c-0.551,0-1-0.449-1-1V18c0-1.654-1.346-3-3-3H5c-0.552,0-1,0.448-1,1
			s0.448,1,1,1h15c0.551,0,1,0.449,1,1v12c0,1.654,1.346,3,3,3h12c0.552,0,1,0.449,1,1v12c0,1.654,1.346,3,3,3h15v2
			c0,0.404,0.243,0.769,0.617,0.924C55.741,51.975,55.871,52,56,52c0.26,0,0.516-0.102,0.707-0.293l3-3
			C60.098,48.316,60.098,47.684,59.707,47.293z"/>
	</g>
</g>
</svg>
